<svg width="32" height="32" viewBox="0 0 160 160" fill="none" xmlns="http://www.w3.org/2000/svg">
  <!-- Outer rings -->
  <circle cx="80" cy="80" r="74" stroke="#00acd7" stroke-width="1.5" stroke-dasharray="4 3" opacity="0.5"/>
  <circle cx="80" cy="80" r="68" stroke="#00acd7" stroke-width="0.75" opacity="0.3"/>

  <!-- Eight trigram radial lines (from r=42 to r=66) -->
  <line x1="80" y1="38" x2="80" y2="14" stroke="#00acd7" stroke-width="1.2" opacity="0.6"/>
  <line x1="109.7" y1="50.3" x2="126.6" y2="33.4" stroke="#00acd7" stroke-width="1.2" opacity="0.6"/>
  <line x1="122" y1="80" x2="146" y2="80" stroke="#00acd7" stroke-width="1.2" opacity="0.6"/>
  <line x1="109.7" y1="109.7" x2="126.6" y2="126.6" stroke="#00acd7" stroke-width="1.2" opacity="0.6"/>
  <line x1="80" y1="122" x2="80" y2="146" stroke="#00acd7" stroke-width="1.2" opacity="0.6"/>
  <line x1="50.3" y1="109.7" x2="33.4" y2="126.6" stroke="#00acd7" stroke-width="1.2" opacity="0.6"/>
  <line x1="38" y1="80" x2="14" y2="80" stroke="#00acd7" stroke-width="1.2" opacity="0.6"/>
  <line x1="50.3" y1="50.3" x2="33.4" y2="33.4" stroke="#00acd7" stroke-width="1.2" opacity="0.6"/>

  <!-- Trigram bars — 3 bars per position at r=55 -->
  <!-- Top 0° Qian ☰ (all solid) -->
  <line x1="72" y1="21" x2="88" y2="21" stroke="#5dc9e2" stroke-width="1.8" stroke-linecap="round"/>
  <line x1="72" y1="25" x2="88" y2="25" stroke="#5dc9e2" stroke-width="1.8" stroke-linecap="round"/>
  <line x1="72" y1="29" x2="88" y2="29" stroke="#5dc9e2" stroke-width="1.8" stroke-linecap="round"/>

  <!-- Top-right 45° Li ☲ (solid broken solid) -->
  <line x1="111.3" y1="40.4" x2="118.2" y2="33.5" stroke="#5dc9e2" stroke-width="1.8" stroke-linecap="round"/>
  <line x1="116.6" y1="46.2" x2="120.7" y2="42.1" stroke="#5dc9e2" stroke-width="1.8" stroke-linecap="round"/>
  <line x1="112.5" y1="50.3" x2="116.6" y2="46.2" stroke="#5dc9e2" stroke-width="1.8" stroke-linecap="round"/>
  <line x1="118.2" y1="35.4" x2="124.8" y2="28.8" stroke="#5dc9e2" stroke-width="1.8" stroke-linecap="round"/>

  <!-- Right 90° Kan ☵ (broken solid broken) -->
  <line x1="131" y1="72" x2="131" y2="78" stroke="#5dc9e2" stroke-width="1.8" stroke-linecap="round"/>
  <line x1="131" y1="82" x2="131" y2="88" stroke="#5dc9e2" stroke-width="1.8" stroke-linecap="round"/>
  <line x1="135" y1="76" x2="135" y2="84" stroke="#5dc9e2" stroke-width="1.8" stroke-linecap="round"/>
  <line x1="139" y1="72" x2="139" y2="78" stroke="#5dc9e2" stroke-width="1.8" stroke-linecap="round"/>
  <line x1="139" y1="82" x2="139" y2="88" stroke="#5dc9e2" stroke-width="1.8" stroke-linecap="round"/>

  <!-- Bottom-right 135° Gen ☶ (solid broken broken) -->
  <line x1="111.3" y1="119.6" x2="118.2" y2="126.5" stroke="#5dc9e2" stroke-width="1.8" stroke-linecap="round"/>
  <line x1="116.6" y1="113.8" x2="120.7" y2="117.9" stroke="#5dc9e2" stroke-width="1.8" stroke-linecap="round"/>
  <line x1="112.5" y1="109.7" x2="116.6" y2="113.8" stroke="#5dc9e2" stroke-width="1.8" stroke-linecap="round"/>

  <!-- Bottom 180° Kun ☷ (all broken) -->
  <line x1="72" y1="131" x2="78" y2="131" stroke="#5dc9e2" stroke-width="1.8" stroke-linecap="round"/>
  <line x1="82" y1="131" x2="88" y2="131" stroke="#5dc9e2" stroke-width="1.8" stroke-linecap="round"/>
  <line x1="72" y1="135" x2="78" y2="135" stroke="#5dc9e2" stroke-width="1.8" stroke-linecap="round"/>
  <line x1="82" y1="135" x2="88" y2="135" stroke="#5dc9e2" stroke-width="1.8" stroke-linecap="round"/>
  <line x1="72" y1="139" x2="78" y2="139" stroke="#5dc9e2" stroke-width="1.8" stroke-linecap="round"/>
  <line x1="82" y1="139" x2="88" y2="139" stroke="#5dc9e2" stroke-width="1.8" stroke-linecap="round"/>

  <!-- Bottom-left 225° Zhen ☳ (broken broken solid) -->
  <line x1="41" y1="119.6" x2="48" y2="126.5" stroke="#5dc9e2" stroke-width="1.8" stroke-linecap="round"/>
  <line x1="35.2" y1="113.8" x2="39.3" y2="117.9" stroke="#5dc9e2" stroke-width="1.8" stroke-linecap="round"/>
  <line x1="39.3" y1="109.7" x2="43.4" y2="113.8" stroke="#5dc9e2" stroke-width="1.8" stroke-linecap="round"/>
  <line x1="31" y1="119.6" x2="37.9" y2="126.5" stroke="#5dc9e2" stroke-width="1.8" stroke-linecap="round"/>

  <!-- Left 270° Xun ☴ (solid solid broken) -->
  <line x1="21" y1="72" x2="21" y2="88" stroke="#5dc9e2" stroke-width="1.8" stroke-linecap="round"/>
  <line x1="25" y1="72" x2="25" y2="88" stroke="#5dc9e2" stroke-width="1.8" stroke-linecap="round"/>
  <line x1="29" y1="72" x2="29" y2="78" stroke="#5dc9e2" stroke-width="1.8" stroke-linecap="round"/>
  <line x1="29" y1="82" x2="29" y2="88" stroke="#5dc9e2" stroke-width="1.8" stroke-linecap="round"/>

  <!-- Top-left 315° Dui ☱ (broken solid solid) -->
  <line x1="41" y1="40.4" x2="48" y2="33.5" stroke="#5dc9e2" stroke-width="1.8" stroke-linecap="round"/>
  <line x1="35.2" y1="46.2" x2="39.3" y2="42.1" stroke="#5dc9e2" stroke-width="1.8" stroke-linecap="round"/>
  <line x1="43.4" y1="50.3" x2="47.5" y2="46.2" stroke="#5dc9e2" stroke-width="1.8" stroke-linecap="round"/>
  <line x1="31" y1="40.4" x2="37.9" y2="33.5" stroke="#5dc9e2" stroke-width="1.8" stroke-linecap="round"/>
  <line x1="33.2" y1="50.3" x2="37.3" y2="46.2" stroke="#5dc9e2" stroke-width="1.8" stroke-linecap="round"/>

  <!-- Middle rings -->
  <circle cx="80" cy="80" r="40" stroke="#00acd7" stroke-width="1" opacity="0.5"/>
  <circle cx="80" cy="80" r="32" stroke="#00acd7" stroke-width="0.5" opacity="0.25"/>

  <!-- Uzumaki spiral -->
  <path d="M80,77 C81.5,77 83,78.5 83,80 C83,83 80,86 77,85.5 C72,84.5 69,79 71,74 C73,67 79.5,64 86,66 C94,69 97,77.5 94.5,86 C91.5,97 80,101 69,97 C56,92 51,78 57,66" stroke="#00acd7" stroke-width="1.6" stroke-linecap="round" fill="none" opacity="0.95"/>

  <!-- Center dot -->
  <circle cx="80" cy="80" r="3" fill="#00acd7" opacity="0.9"/>
  <circle cx="80" cy="80" r="1.5" fill="#fff" opacity="0.6"/>
</svg>